Coordinates
version=1
nRows=7
nColumns=63
inDegrees=yes

Units are S.I. units (second, meters, Newtons, ...)
If the header above contains a line with 'inDegrees', this indicates whether rotational values are in degrees (yes) or radians (no).

endheader
time	pelvis_tilt	pelvis_list	pelvis_rotation	pelvis_tx	pelvis_ty	pelvis_tz	hip_flexion_r	hip_adduction_r	hip_rotation_r	knee_angle_r	knee_angle_r_beta	ankle_angle_r	subtalar_angle_r	mtp_angle_r	hip_flexion_l	hip_adduction_l	hip_rotation_l	knee_angle_l	knee_angle_l_beta	ankle_angle_l	subtalar_angle_l	mtp_angle_l	L5_S1_Flex_Ext	L5_S1_Lat_Bending	L5_S1_axial_rotation	L4_L5_Flex_Ext	L4_L5_Lat_Bending	L4_L5_axial_rotation	L3_L4_Flex_Ext	L3_L4_Lat_Bending	L3_L4_axial_rotation	L2_L3_Flex_Ext	L2_L3_Lat_Bending	L2_L3_axial_rotation	L1_L2_Flex_Ext	L1_L2_Lat_Bending	L1_L2_axial_rotation	L1_T12_Flex_Ext	L1_T12_Lat_Bending	L1_T12_axial_rotation	Abs_r3	Abs_r2	Abs_r1	Abs_t1	Abs_t2	neck_flexion	neck_bending	neck_rotation	arm_flex_r	arm_add_r	arm_rot_r	elbow_flex_r	pro_sup_r	wrist_flex_r	wrist_dev_r	arm_flex_l	arm_add_l	arm_rot_l	elbow_flex_l	pro_sup_l	wrist_flex_l	wrist_dev_l
      0.00000000	     -4.12336282	     -4.10698568	     86.42905537	      0.25500489	      0.81836379	      0.72898906	      7.60316605	     -0.34730751	      2.74859352	      8.16779015	      0.14255483	     27.04611283	     -5.27861759	      0.00000000	      8.16793960	      0.67526794	     -0.34202460	      8.55835655	      0.14937150	     30.72747466	     -0.86255972	      0.00000000	      0.27495046	     -0.13222721	      1.33528586	      0.51061050	     -0.17586219	      1.41874123	      0.45171611	     -0.32149725	      1.41874123	      0.31424088	     -0.32149725	      1.16837513	      0.25531900	     -0.26963773	      1.08491976	      0.15710669	     -0.20481995	      1.00146440	      1.96394365	     -1.49578069	      7.42645938	      0.00000000	      0.00000000	     28.13126329	      5.65970471	     -2.60564806	     10.03412613	     -7.52661090	     44.19398777	     49.98787630	     68.55851680	     14.74801934	     17.81720472	     25.01768532	     -5.62147085	     74.01221324	     45.34234789	     79.36893748	     20.45687106	     12.70566720
      0.01818182	     -4.33899915	     -3.99022040	     86.59231700	      0.25445158	      0.81751310	      0.72895210	      7.25202698	     -0.68521123	      3.17155044	      8.04685082	      0.14044404	     27.52545035	     -5.02208422	      0.00000000	      8.09523261	      0.96228662	     -0.71162829	      8.86541226	      0.15473063	     30.81741165	     -1.16052323	      0.00000000	      0.24088736	     -0.15435111	      1.31885095	      0.44735192	     -0.20528698	      1.40127913	      0.39575384	     -0.37528930	      1.40127913	      0.27531016	     -0.37528930	      1.15399458	      0.22368800	     -0.31475279	      1.07156640	      0.13764304	     -0.23908988	      0.98913821	      1.72063432	     -1.74605067	      7.33505332	      0.00000000	      0.00000000	     28.07314465	      6.13193746	     -2.61234873	      9.78490745	     -7.89842023	     43.94585582	     50.83135577	     68.63947430	     14.50647804	     17.09828392	     24.97227629	     -5.98932420	     73.43781605	     45.83758115	     78.89643278	     20.46732161	     12.20159771
      0.03636364	     -4.59958000	     -4.01307264	     86.53664428	      0.25459142	      0.81685078	      0.72873133	      7.13376337	     -1.03234177	      3.35035611	      7.94678645	      0.13869759	     27.82928180	     -4.28652559	      0.00000000	      8.06970165	      1.24503826	     -1.09565640	      8.93318371	      0.15591347	     30.76512947	     -1.46864423	      0.00000000	      0.23852669	     -0.18444196	      1.31896090	      0.44296791	     -0.24530780	      1.40139595	      0.39187550	     -0.44845217	      1.40139595	      0.27261215	     -0.44845217	      1.15409078	      0.22149588	     -0.37611404	      1.07165573	      0.13629415	     -0.28570059	      0.98922067	      1.70377228	     -2.08644429	      7.33566481	      0.00000000	      0.00000000	     28.01885043	      7.00422744	     -2.10801718	      9.49529988	     -7.88367996	     43.72549600	     51.20650080	     69.18895168	     12.80010114	     15.27605852	     24.81145364	     -6.28956757	     72.61301417	     46.16988235	     77.78949252	     20.60990092	     12.03483693
      0.05454545	     -4.78192065	     -3.96594787	     86.53258610	      0.25455162	      0.81632022	      0.72864225	      7.07582032	     -1.43810810	      1.49795868	      8.01839311	      0.13994736	     28.63132326	     -1.10507941	      0.00000000	      8.03915004	      1.43475962	     -1.57806774	      9.05357385	      0.15801467	     30.90893712	     -1.22894142	      0.00000000	      0.22475904	     -0.20510212	      1.32619694	      0.41740002	     -0.27278582	      1.40908425	      0.36925663	     -0.49868529	      1.40908425	      0.25687711	     -0.49868529	      1.16042232	      0.20871125	     -0.41824424	      1.07753501	      0.12842732	     -0.31770318	      0.99464770	      1.60543137	     -2.32015617	      7.37590951	      0.00000000	      0.00000000	     27.99158402	      7.24145671	     -2.09597881	      9.38736502	     -8.00757592	     43.77074921	     51.76033969	     66.75671781	     11.10204597	     15.27312932	     25.04144313	     -6.47261281	     72.60131963	     46.76812154	     75.09205253	     19.90129125	     13.61384800
      0.07272727	     -4.95597414	     -3.87805959	     86.69648930	      0.25430487	      0.81599793	      0.72831657	      6.84535805	     -1.69274367	      1.56615088	      7.81896917	      0.13646676	     28.60747441	     -1.03584487	      0.00000000	      7.96303570	      1.66699925	     -1.52811790	      9.12006011	      0.15917508	     30.94789068	     -1.32734130	      0.00000000	      0.20805347	     -0.22321882	      1.31248818	      0.38637610	     -0.29688103	      1.39451869	      0.34181104	     -0.54273424	      1.39451869	      0.23778431	     -0.54273424	      1.14842716	      0.19319845	     -0.45518782	      1.06639665	      0.11888175	     -0.34576595	      0.98436614	      1.48610512	     -2.52509593	      7.29966551	      0.00000000	      0.00000000	     27.96789964	      7.40475472	     -1.91395794	      9.21793590	     -7.89480930	     43.05176693	     51.90414099	     66.08366385	     10.92170945	     15.04476602	     25.24009963	     -6.50281515	     72.17768112	     47.10896149	     75.19130025	     20.18364818	     13.62888544
      0.09090909	     -5.10411710	     -3.89180600	     86.91621746	      0.25434037	      0.81578992	      0.72773304	      6.66097607	     -1.88521081	      1.55063568	      7.49386869	      0.13079268	     28.42141545	     -1.02022732	      0.00000000	      7.89005934	      1.86596386	     -1.25496974	      8.96066051	      0.15639303	     30.89372307	     -1.45218380	      0.00000000	      0.21558292	     -0.24507023	      1.28972857	      0.40035904	     -0.32594341	      1.37033660	      0.35418118	     -0.59586377	      1.37033660	      0.24638972	     -0.59586377	      1.12851250	      0.20019030	     -0.49974722	      1.04790446	      0.12318408	     -0.37961379	      0.96729643	      1.53988725	     -2.77228351	      7.17308338	      0.00000000	      0.00000000	     27.94572457	      7.68632553	     -1.79193281	      8.76203462	     -7.42575956	     41.81319683	     51.87771670	     63.72748729	     10.23541411	     15.69513955	     25.29592097	     -6.42323980	     71.41162438	     47.29850380	     75.70733985	     20.71086356	     14.36160967
      0.10909091	     -5.03664092	     -3.86366143	     87.28373816	      0.25360007	      0.81577900	      0.72771793	      6.61426513	     -1.95202028	      0.46284731	      7.48672686	      0.13066803	     28.46077329	     -0.01726267	      0.00000000	      7.96133735	      1.82218312	     -1.45816977	      9.11414087	      0.15907177	     31.09882852	     -0.64664192	      0.00000000	      0.21029423	     -0.23655993	      1.23049679	      0.39053741	     -0.31462470	      1.30740284	      0.34549239	     -0.57517180	      1.30740284	      0.24034528	     -0.57517180	      1.07668469	      0.19527922	     -0.48239300	      0.99977864	      0.12016212	     -0.36643132	      0.92287259	      1.50211065	     -2.67601319	      6.84365397	      0.00000000	      0.00000000	     27.94065309	      7.82175661	     -1.82083131	      9.09078907	     -7.63716336	     42.59828434	     51.89948672	     61.48140538	      9.52711070	     15.85785046	     25.73727294	     -6.25227721	     72.11627411	     47.20364482	     73.76174521	     19.97660319	     14.41459786
